<svg width="62" height="62" viewBox="0 0 62 62" fill="none" xmlns="http://www.w3.org/2000/svg">
<circle cx="31" cy="31" r="30" stroke="white" stroke-opacity="0.2"/>
<path d="M38.9297 25.9214C39.7109 25.3354 40.4141 24.6323 40.9609 23.812C40.2578 24.1245 39.4375 24.3589 38.6172 24.437C39.4766 23.9292 40.1016 23.1479 40.4141 22.1714C39.6328 22.6401 38.7344 22.9917 37.8359 23.187C37.0547 22.3667 36 21.8979 34.8281 21.8979C32.5625 21.8979 30.7266 23.7339 30.7266 25.9995C30.7266 26.312 30.7656 26.6245 30.8438 26.937C27.4453 26.7417 24.3984 25.1011 22.3672 22.6401C22.0156 23.2261 21.8203 23.9292 21.8203 24.7104C21.8203 26.1167 22.5234 27.3667 23.6562 28.1089C22.9922 28.0698 22.3281 27.9136 21.7812 27.6011V27.6401C21.7812 29.6323 23.1875 31.2729 25.0625 31.6636C24.75 31.7417 24.3594 31.8198 24.0078 31.8198C23.7344 31.8198 23.5 31.7808 23.2266 31.7417C23.7344 33.3823 25.2578 34.5542 27.0547 34.5933C25.6484 35.687 23.8906 36.3511 21.9766 36.3511C21.625 36.3511 21.3125 36.312 21 36.2729C22.7969 37.4448 24.9453 38.1089 27.2891 38.1089C34.8281 38.1089 38.9297 31.8979 38.9297 26.4683C38.9297 26.2729 38.9297 26.1167 38.9297 25.9214Z" fill="white"/>
</svg>
